<svg width="1024" height="1024" viewBox="0 0 512 512" xmlns="http://www.w3.org/2000/svg">
	<path fill="#ffffff" d="M207.012 26.4824L230.309 26.375L304.976 26.5642L304.61 214.761C303.383 240.445 333.844 235.565 339.192 214.125C341.103 206.465 340.213 196.776 340.215 188.947C340.219 175.34 340.064 161.719 340.266 148.114L487.381 55.2276L487.429 178.697C479.821 182.318 472.676 187.278 465.648 191.91C432.014 214.076 397.54 235.118 363.099 256.019C331.034 275.478 329.096 283.797 329.077 318.064C329.068 332.606 329.436 347.221 329.054 361.758C328.72 374.429 323.535 378.067 312.952 384.447C307.457 387.759 301.907 390.981 296.417 394.3C290.113 398.111 283.899 402.847 277.204 405.865L277.226 404.839C277.802 398.718 277.517 392.449 277.518 386.297C277.52 368.336 277.497 350.375 277.5 332.413C277.502 325.085 278.191 319.267 274.52 312.633L274.208 312.126C263.928 296.195 238.505 299.069 234.681 318.875C233.942 322.703 234.059 326.843 234.057 330.736C234.046 355.035 234.563 379.367 233.921 403.655L191.501 378.209C182.051 371.902 182.389 363.19 182.387 352.868C182.384 337.628 182.395 322.388 182.388 307.148C182.386 302.248 182.899 296.548 181.892 291.749L181.558 290.141C177.809 273.132 165.464 265.633 151.883 257.314C109.405 231.297 66.6756 204.953 24.7004 178.206C24.4624 176.256 24.6752 174.341 24.7237 172.387C25.4244 144.204 24.7349 115.191 24.7339 86.9144C24.7336 76.3044 24.4815 65.6507 25.1178 55.0563L172.083 147.976C172.625 162.272 172.075 176.762 172.083 191.074C172.087 198.508 171.385 207.137 173.253 214.375C178.28 233.846 205.46 237.693 207.313 219.906C207.834 214.906 207.035 209.618 207.029 204.573C206.955 145.21 207.144 85.846 207.012 26.4824Z"/>
	<path fill="#ffffff" d="M24.7199 374.094C24.5296 371.867 24.7307 369.64 24.7334 367.409C24.7791 329.789 24.7198 292.167 24.7372 254.547C24.7385 251.566 24.661 248.585 25.0776 245.626C30.3833 248.027 35.5077 251.85 40.5182 254.862C73.8 274.872 106.299 296.203 139.742 315.943C142.106 317.338 144.693 318.595 146.822 320.323C147.24 323.832 146.892 327.719 146.89 331.279C146.882 343.014 145.634 364.476 147.427 375.445C151.215 398.629 167.896 405.78 186.123 416.432C199.645 424.334 212.74 432.956 226.216 440.939C228.65 442.381 231.208 443.669 233.496 445.34L233.813 445.575C235.084 453.355 234 470.48 234.043 478.95C234.052 480.756 234.623 483.454 234.234 485.125L233.562 485.239C229.094 485.549 206.818 486.362 203.118 484.926C201.036 484.118 199.157 482.768 197.281 481.579C151.856 452.788 106.106 424.582 60.3635 396.307C48.4557 388.946 36.7189 381.305 24.7199 374.094Z"/>
	<path fill="#ffffff" d="M365.697 323.12C369.791 319.416 375.138 316.595 379.827 313.674C411.618 293.875 443.455 273.891 475.198 253.992C479.029 251.59 482.883 249.114 486.996 247.22L487.427 247.332C487.9 249.067 487.38 251.955 487.376 253.829C487.309 291.595 487.289 329.363 487.371 367.129C487.377 369.898 487.564 372.626 487.483 375.401C482.615 377.937 478.053 381.03 473.385 383.909C423.668 414.57 373.66 445.876 324.683 477.603C320.981 480.002 316.695 483.491 312.524 484.917C308.209 486.391 284.7 485.437 279.071 485.393L278.262 485.125C277.801 480.19 278.231 474.86 278.232 469.876C278.233 462.671 277.721 455.012 278.537 447.868C281.884 445.432 285.472 443.305 288.979 441.108C302.234 432.805 315.567 424.495 328.981 416.458C336.972 411.671 346.411 407.373 353.098 400.806C367.033 387.12 365.674 370.729 365.675 353.009C365.676 343.047 365.611 333.081 365.697 323.12Z"/>
</svg>
