<?xml version="1.0" encoding="iso-8859-1"?>
<!-- Uploaded to: SVG Repo, www.svgrepo.com, Generator: SVG Repo Mixer Tools -->
<!DOCTYPE svg PUBLIC "-//W3C//DTD SVG 1.1//EN" "http://www.w3.org/Graphics/SVG/1.1/DTD/svg11.dtd">
<svg fill="#000000" height="800px" width="800px" version="1.1" id="Capa_1" xmlns="http://www.w3.org/2000/svg" xmlns:xlink="http://www.w3.org/1999/xlink" 
	 viewBox="0 0 226.012 226.012" xml:space="preserve">
<g>
	<path d="M48.317,96.914c-2.844,1.285-4.595,4.197-4.396,7.313c3.119,48.92,18.844,89.875,40.49,106.357v7.928
		c0,4.143,3.357,7.5,7.5,7.5h30.057c4.143,0,7.5-3.357,7.5-7.5v-7.93c11.836-8.973,22.002-25.162,29.283-46.576l11.736,7.709
		c2.686,1.766,6.199,1.621,8.732-0.355c2.533-1.979,3.525-5.35,2.466-8.385l-19.107-54.721c-0.851-2.436-2.895-4.264-5.41-4.84
		c-2.514-0.574-5.149,0.184-6.975,2.008l-0.599,0.598c0.345-4.799,0.521-9.686,0.521-14.641C150.117,39.285,131.554,0,106.939,0
		C82.325,0,63.763,39.285,63.763,91.379c0,4.957,0.177,9.842,0.521,14.643l-7.575-7.576C54.503,96.24,51.161,95.629,48.317,96.914z
		 M78.763,91.379c0-1.816,0.035-3.604,0.085-5.381h21.841v17.5H79.154C78.9,99.521,78.763,95.48,78.763,91.379z M113.189,85.998
		h21.843c0.05,1.777,0.085,3.564,0.085,5.381c0,4.102-0.137,8.143-0.391,12.119h-21.537V85.998z M134.255,73.498h-21.066v-17.5
		h18.429C132.755,61.443,133.654,67.301,134.255,73.498z M100.689,73.498H79.625c0.602-6.197,1.499-12.055,2.638-17.5h18.427V73.498
		z M81.574,123.311c-0.443-2.4-0.836-4.838-1.174-7.313h20.289v26.43L81.574,123.311z M113.189,115.998h20.292
		c-0.339,2.473-0.73,4.91-1.173,7.311l-19.119,19.119V115.998z M128.375,43.498h-15.186V17.285
		C118.838,21.346,124.308,30.631,128.375,43.498z M100.689,17.285v26.213H85.505C89.571,30.631,95.04,21.346,100.689,17.285z
		 M69.39,132.342l0.047,0.047l32.198,32.199c1.407,1.406,3.314,2.197,5.304,2.197c1.989,0,3.896-0.791,5.304-2.197l32.25-32.25
		l0.087-0.088l7.775-7.773l7.876,22.555l-1.579-1.037c-2-1.314-4.508-1.594-6.747-0.754c-2.241,0.838-3.947,2.695-4.592,5
		c-6.865,24.516-17.543,42.752-29.295,50.035c-2.207,1.367-3.55,3.779-3.55,6.375v4.361H99.412v-4.355
		c0-2.596-1.343-5.008-3.55-6.375c-16.217-10.047-29.348-39.492-34.79-76.26L69.39,132.342z"/>
</g>
</svg>